<svg width="37" height="16" viewBox="0 0 37 16" fill="none" xmlns="http://www.w3.org/2000/svg">
<path d="M37 8C37 12.4183 33.4503 16 29.0714 16C24.6926 16 21.1429 12.4183 21.1429 8C21.1429 3.58172 24.6926 0 29.0714 0C33.4503 0 37 3.58172 37 8Z" fill="white"/>
<path d="M18.5 8C18.5 10.9455 16.1335 13.3333 13.2143 13.3333C10.2951 13.3333 7.92857 10.9455 7.92857 8C7.92857 5.05448 10.2951 2.66667 13.2143 2.66667C16.1335 2.66667 18.5 5.05448 18.5 8Z" fill="white"/>
<path d="M5.28571 8C5.28571 9.47276 4.10247 10.6667 2.64286 10.6667C1.18325 10.6667 0 9.47276 0 8C0 6.52724 1.18325 5.33333 2.64286 5.33333C4.10247 5.33333 5.28571 6.52724 5.28571 8Z" fill="white"/>
</svg>
